<?xml version="1.0" standalone="no"?>
<!DOCTYPE svg PUBLIC "-//W3C//DTD SVG 20010904//EN"
 "http://www.w3.org/TR/2001/REC-SVG-20010904/DTD/svg10.dtd">
<svg version="1.0" xmlns="http://www.w3.org/2000/svg"
 width="100.000000pt" height="100.000000pt" viewBox="0 0 100.000000 100.000000"
 preserveAspectRatio="xMidYMid meet">

<g transform="translate(0.000000,100.000000) scale(0.100000,-0.100000)"
fill="#000000" stroke="none">
<path d="M314 906 c-18 -19 -25 -66 -18 -112 7 -47 24 -61 24 -19 0 14 -4 25
-10 25 -16 0 -12 57 5 64 9 3 15 0 15 -8 0 -8 7 -16 15 -20 8 -3 15 -12 15
-21 0 -8 5 -15 10 -15 6 0 10 -13 10 -30 0 -16 -4 -30 -10 -30 -5 0 -10 -4
-10 -10 0 -5 7 -10 15 -10 8 0 15 4 15 9 0 5 10 12 23 14 21 4 21 4 1 6 -18 1
-23 9 -28 46 -4 25 -11 45 -16 45 -4 0 -11 12 -14 26 -10 36 -28 54 -42 40z"/>
<path d="M718 863 c-16 -2 -28 -8 -28 -13 0 -5 -8 -11 -17 -14 -10 -2 0 -2 22
1 22 3 42 10 43 14 4 9 32 13 32 4 0 -3 -17 -22 -38 -43 -21 -20 -41 -45 -45
-54 -3 -10 -13 -18 -22 -18 -16 0 -55 -34 -55 -49 0 -5 5 -11 10 -13 6 -2 12
-25 14 -53 1 -27 8 -51 14 -53 7 -2 12 3 12 12 0 19 19 22 21 4 5 -43 -2 -72
-20 -87 -22 -19 -28 -41 -11 -41 6 0 10 7 10 15 0 17 18 19 40 5 23 -14 3 -24
-47 -25 -29 0 -47 -5 -49 -13 -1 -7 0 -8 3 -2 7 15 23 12 23 -5 0 -8 -4 -15
-9 -15 -5 0 -11 -28 -13 -62 -3 -35 -10 -64 -16 -66 -7 -2 -12 -9 -12 -17 0
-25 -137 -35 -146 -10 -4 10 -22 15 -58 16 -28 0 -45 3 -38 6 14 6 17 53 2 53
-5 0 -10 7 -10 15 0 8 -9 22 -20 32 -19 19 -18 63 1 63 5 0 9 7 9 15 0 8 -6
15 -13 15 -17 0 -51 30 -59 51 -8 21 9 49 20 33 4 -6 17 -14 29 -18 12 -4 24
-17 26 -29 2 -12 2 -4 0 18 -2 22 -8 42 -13 45 -10 6 -14 32 -12 63 3 27 22
20 22 -8 0 -31 25 -33 34 -2 9 35 7 47 -9 47 -8 0 -15 -4 -15 -10 0 -5 5 -10
10 -10 6 0 10 -4 10 -10 0 -21 -20 -9 -26 15 -8 34 -21 32 -29 -5 -4 -16 -11
-30 -16 -30 -11 0 -12 -46 -1 -53 4 -2 1 -2 -7 0 -8 2 -23 -6 -33 -17 -10 -11
-15 -20 -9 -20 5 0 12 -11 15 -24 3 -14 15 -28 26 -31 33 -10 30 -49 -6 -80
-27 -23 -31 -56 -9 -79 8 -8 15 -20 15 -26 0 -6 14 -13 30 -16 17 -4 30 -10
30 -15 0 -5 15 -9 33 -9 59 0 77 -10 77 -41 0 -33 14 -38 29 -11 9 16 11 16
24 -2 14 -19 37 -15 37 5 0 13 26 39 39 39 5 0 22 13 38 28 16 17 45 32 67 36
47 9 68 26 52 43 -38 41 -34 55 18 69 14 3 26 10 26 14 0 4 11 11 25 14 24 6
36 26 16 26 -17 0 -40 30 -35 44 3 8 21 17 40 20 19 4 34 11 34 15 0 5 10 11
21 14 20 6 22 10 15 68 -6 62 -17 80 -46 78 -11 -1 -10 -3 3 -6 10 -3 17 -14
17 -29 0 -13 5 -24 10 -24 6 0 10 -18 10 -39 0 -36 -3 -40 -30 -46 -16 -4 -30
-11 -30 -16 0 -5 -8 -9 -18 -9 -10 0 -25 -8 -33 -18 -15 -17 -14 -20 7 -38 31
-25 30 -31 -6 -39 -16 -4 -30 -11 -30 -16 0 -5 -6 -9 -14 -9 -21 0 -46 -28
-40 -45 5 -11 -1 -15 -19 -15 -14 0 -28 -6 -30 -12 -8 -18 -8 23 -1 50 4 13
14 22 25 22 11 0 19 5 19 10 0 6 6 10 14 10 23 0 31 22 13 35 -18 13 -23 55
-7 55 6 0 10 13 10 29 0 22 -6 32 -22 37 -34 10 -47 28 -50 70 -2 32 0 39 17
42 11 2 24 10 28 18 4 8 12 14 17 14 13 0 50 32 50 43 0 5 7 15 15 23 8 9 15
24 15 35 0 19 -6 20 -62 12z m-428 -495 c0 -18 2 -20 10 -8 12 19 20 10 27
-34 5 -32 3 -36 -16 -36 -11 0 -21 6 -21 13 0 7 -9 19 -20 27 -15 11 -16 16
-7 23 9 7 9 10 0 14 -20 8 -15 23 7 23 14 0 20 -7 20 -22z m423 -12 c4 -10 1
-13 -9 -9 -15 6 -19 23 -5 23 5 0 11 -7 14 -14z"/>
<path d="M622 814 c-7 -8 -8 -14 -3 -14 10 0 25 19 20 25 -2 1 -10 -3 -17 -11z"/>
<path d="M576 785 c-3 -8 -15 -15 -26 -15 -11 0 -20 -4 -20 -9 0 -5 -6 -11
-12 -14 -7 -2 0 -2 16 1 35 5 86 52 57 52 -5 0 -11 -7 -15 -15z"/>
<path d="M320 731 c0 -10 19 -25 25 -20 1 2 -3 10 -11 17 -8 7 -14 8 -14 3z"/>
<path d="M786 689 c-11 -10 -16 -22 -13 -26 4 -3 7 -1 7 5 0 6 9 14 20 17 11
3 20 11 20 16 0 14 -13 10 -34 -12z"/>
<path d="M513 683 c-20 -7 -15 -41 6 -48 26 -8 51 4 51 25 0 24 -28 35 -57 23z
m33 -41 c-4 -3 -11 0 -16 8 -15 24 -11 33 6 15 9 -9 13 -19 10 -23z"/>
<path d="M732 644 c-7 -8 -8 -14 -3 -14 10 0 25 19 20 25 -2 1 -10 -3 -17 -11z"/>
<path d="M390 620 c0 -5 5 -10 10 -10 6 0 10 5 10 10 0 6 -4 10 -10 10 -5 0
-10 -4 -10 -10z"/>
<path d="M563 615 c-17 -18 -16 -33 1 -51 18 -17 36 -18 36 -2 0 6 3 8 7 4 5
-4 -1 -14 -11 -22 -11 -7 -17 -16 -14 -20 8 -7 48 32 48 46 0 6 -4 10 -9 10
-5 0 -12 11 -15 25 -7 28 -24 32 -43 10z"/>
<path d="M390 576 c0 -15 7 -27 19 -31 28 -9 51 5 51 31 0 21 -5 24 -35 24
-30 0 -35 -3 -35 -24z"/>
<path d="M460 180 c0 -5 9 -10 20 -10 11 0 20 5 20 10 0 6 -9 10 -20 10 -11 0
-20 -4 -20 -10z"/>
</g>
</svg>
